<?xml version="1.0" standalone="no"?>
<!DOCTYPE svg PUBLIC "-//W3C//DTD SVG 20010904//EN"
 "http://www.w3.org/TR/2001/REC-SVG-20010904/DTD/svg10.dtd">
<svg version="1.0" xmlns="http://www.w3.org/2000/svg"
 width="700.000000pt" height="700.000000pt" viewBox="0 0 700.000000 700.000000"
 preserveAspectRatio="xMidYMid meet">
<metadata>
Created by potrace 1.14, written by Peter Selinger 2001-2017
</metadata>
<g transform="translate(0.000000,700.000000) scale(0.100000,-0.100000)"
fill="#000000" stroke="none">
<path d="M617 3657 c-76 -24 -125 -100 -114 -180 6 -44 27 -77 190 -297 160
-216 309 -392 489 -578 l81 -84 -65 -66 c-250 -255 -503 -525 -516 -548 -18
-34 -17 -105 1 -141 41 -78 123 -113 203 -86 42 14 84 56 526 517 l95 100 75
-62 c289 -236 580 -410 901 -538 61 -24 116 -44 121 -44 41 -1 36 -18 -116
-396 -167 -414 -172 -437 -129 -508 57 -92 189 -104 262 -25 16 18 85 178 185
429 l159 401 43 -6 c24 -4 54 -9 65 -11 120 -27 524 -39 702 -21 44 5 120 15
168 23 49 9 90 14 91 12 1 -2 31 -75 66 -163 34 -88 68 -173 75 -190 7 -16 22
-55 34 -85 12 -30 26 -64 31 -75 5 -11 32 -78 60 -149 28 -71 57 -138 64 -148
65 -93 211 -91 273 4 39 59 35 110 -21 253 -26 66 -54 134 -61 150 -7 17 -34
84 -60 150 -26 66 -55 139 -66 162 -10 24 -19 47 -19 51 0 5 -7 23 -16 40 -8
18 -19 45 -24 61 -8 29 -8 29 68 56 150 53 336 138 465 213 20 12 54 32 75 43
87 50 369 245 402 279 3 3 29 25 59 49 l54 45 106 -111 c384 -400 469 -486
493 -499 15 -8 49 -14 76 -14 118 0 196 123 148 233 -8 18 -65 85 -128 149
-62 64 -147 152 -188 195 -41 43 -117 122 -168 175 l-94 97 38 39 c31 30 169
178 229 246 101 113 359 444 447 576 43 63 56 122 38 174 -13 40 -54 83 -97
101 -37 16 -106 10 -142 -11 -30 -18 -40 -30 -166 -204 -326 -448 -713 -844
-1075 -1100 -617 -436 -1304 -595 -1985 -459 -55 11 -118 25 -140 31 -22 6
-44 12 -50 13 -36 8 -245 84 -320 117 -85 38 -264 127 -275 138 -3 3 -21 14
-40 24 -102 55 -307 202 -460 330 -143 119 -479 461 -572 582 -12 16 -25 31
-29 34 -13 11 -190 241 -267 349 -44 62 -96 124 -114 137 -41 29 -91 36 -141
21z"/>
</g>
</svg>
